<svg xmlns="http://www.w3.org/2000/svg" viewBox="0 0 730.95 316.8"><defs><style>.cls-1{fill:#e20613;}.cls-2{fill:#fff;}.cls-3{fill:#1d1d1b;}</style></defs><title>Recurso 3</title><g id="Capa_2" data-name="Capa 2"><g id="Capa_1-2" data-name="Capa 1"><path class="cls-1" d="M576.12,96a48,48,0,0,0-1.41-5.15c-.29-.75-1.24-1.73-1.86-1.69-3.49.19-6-2.09-8.65-3.9a46.33,46.33,0,0,0-6.61-4c-1.92-.87-2.3-2.22-2-4.14.53-2.93,2.11-4.43,5.1-5.11.91-.21,1.76-.76,2.67-1a73.87,73.87,0,0,1,7.36-1.94c3.44-.6,7-.69,10.39-1.43,3.22-.69,4.41-3.29,3.48-7.22-.74-3.16-3.08-1.32-4.76-1.5-.15,0-.3.1-.46.13-4.48.82-5.49-.17-5.08-5.1a17.07,17.07,0,0,1,.51-3.12c1.23-4.3,2.82-5.73,6.95-5.81,3.14-.07,6.28.08,9.43.16a26.59,26.59,0,0,1,.93-3.26,6.28,6.28,0,0,1-1.23-.68c-.54-.38-1.55.06-2.34.13-4.36.38-5.31-.92-3.43-5.35a86,86,0,0,1,4.48-8.22c-3.27-1.46-6.55-2.81-10.14-1.37-.37.15-1.14,0-1.29-.27-1-2-2.26-1.18-3.66-.59a2.42,2.42,0,0,1-2.23-.33c-1.83-1.71-3.87-1.15-5.92-1.1-4.12.08-8.24.15-12.35-.06-3.25-.18-6.48-.95-9.73-1.17-4.44-.31-8.9-.32-13.35-.56a5.32,5.32,0,0,1-2-.9c-.91-.49-1.75-1.34-2.69-1.5-3.3-.56-6.62-.91-9.94-1.31-2.53-.3-5.15-1.13-7.57-.66s-3.91-3.47-6.32-1a1.65,1.65,0,0,1-.62-.63C501,13.66,498.87,14,497,14.05c-4.44.23-8.88.56-13.3,1.09-8.06,1-16.09,2.14-24.14,3.15-7,.88-13.9,1.71-20.86,2.45-4.41.47-8.91.34-13.25,1.21a135.49,135.49,0,0,1-30.35,2.83,22.92,22.92,0,0,0-5.22.49c-2.93.6-5.69,2.84-8.85.38-.74-.58-2.48.16-3.66.62-5.06,2-10.23,2.24-15.52,1.9a16.93,16.93,0,0,0-7.47.8,10.64,10.64,0,0,1-5.84.94c-.9.17-1.81.33-2.71.47-6.94,1.08-13.93,1.05-20.91,1.38-7.17.34-14.35.76-21.53.69C251.55,31.94,200,37.66,148.78,47q-19,3.45-37.86,7.42c-10.46,2.19-20.93,4.31-31.07,8A86.85,86.85,0,0,0,56.34,75.16a6.67,6.67,0,0,1,.32,3.11A12.8,12.8,0,0,1,55,82.61c-2.24,3.37-3.19,7.24-4.15,11.17-1.33,5.43-2.91,10.79-4.36,16.18a15.89,15.89,0,0,0-.38,2.06c-1.63,12.4-3.36,24.79-4.8,37.21-.61,5.22-.29,10.57-.93,15.79a56.24,56.24,0,0,0,.85,17.85,111.63,111.63,0,0,1,2.38,15.59c.28,5.92,1.18,11.46,3.72,16.68a20.94,20.94,0,0,1,1.42,4.42c.82,3.37,1.39,6.83,2.36,10.15a7.14,7.14,0,0,0,2.44,3.7c.74.51,2.19-.23,3.53-.44,1.6,8.9,7.8,6.33,12.65,6.36l3.48,7.94c1.3-1.44,2.08-2.28,2.84-3.14,2.53-2.87,2.53-2.88,5.42-.49,2.42,2,2.42,2,4.47-.76,3-4,7-4.93,10.94-2.66,1.89,1.09,5.75,1.26,8.09.48a5.73,5.73,0,0,1,2.36-.23,56.13,56.13,0,0,1,7.09.93,12,12,0,0,0,9.25-1.17c4.59-2.67,10.23-.93,14.71-4.27.29-.22,1-.05,1.37.17,1.83,1,3.23,0,4.89-.82,3.71-1.79,7.32-5.16,11.79-2,.44.31,1.56-.18,2.17-.63,2.33-1.69,4.56-3.36,7.37-1.07.33.27,1.17-.32,1.78-.35a35.44,35.44,0,0,1,3.57,0c2.08.13,4.9,1.35,6.1.28,3-2.61,6.54-1.57,9.27-3,5.42-2.82,11.17-.84,16.5-2.87a4.25,4.25,0,0,1,3.28-.07c2.74,1.64,5.31.11,7.85-.35,3.23-.58,6.34-1.93,9.51-2.88,2.84-.84,5.61-1.49,8.67-.64a14.43,14.43,0,0,0,10.76-.91,6.8,6.8,0,0,1,2.22-.68c2.64-.35,5.28-.68,7.93-.9,1.69-.14,3.39-.11,5.09-.09.95,0,1.9.24,2.84.18,3.32-.19,6.72,0,9.93-.84s6.14-3.51,9.8-2.35c6.4-3.09,13.12-2.08,19.78-2a10.6,10.6,0,0,0,5.45-1.31,10.19,10.19,0,0,1,8.74-1.28c2.73.85,5.23.91,7.75-.87a4.19,4.19,0,0,1,3.2-.54c3.26.86,6.29-.31,9.4-.94,2.33-.47,4.76-1.35,7-1a15.46,15.46,0,0,0,8.73-1.23,9.26,9.26,0,0,1,2.78-.71c4.59-.5,9.19-.82,13.76-1.46,2.13-.31,4.37-2.08,6.26-1.64,2.79.67,4.94-.62,7.36-1.24,3.09-.78,6.25-2.28,9.28-2,5.53.44,10.69-1.33,16-2.12,5-.74,10.07-1.63,15.11-2.31,10.57-1.44,21.13-3,31.74-4.07,7-.69,13.66-4.63,20.94-3.11.65.14,1.44-.63,2.19-.92a3.78,3.78,0,0,1,1.76-.47c4,.62,7.83-2.33,11.92-1.1.25.08.6-.18.88-.33,3.27-1.68,6.53-3.38,9.81-5a5.12,5.12,0,0,1,1.8-.64,32.15,32.15,0,0,0,12.46-4.11,151.57,151.57,0,0,0,14.5-9.06c3.3-2.23,3.29-2.26,7-.67l-1.54-2.9c3.56-.56,5.8-4.47,9.65-4,.49.06,1.48-1,1.61-1.66.38-2,1.61-1.54,2.84-1.86,3.47-.89,6.87-2.16,10.29-3.28,1.39-4,4.43-3.45,7.41-3.7a4.9,4.9,0,0,0,3.46-3c1.16-5.08,4.65-9.3,9.08-10.5,1.78-.49,3.41-1.66,5.15-2.37.92-.37,2.23-.94,2.87-.51,1.5,1,2.28,1.31,3.27-.75.37-.75,2-.77,3-1.11l6.51-2.13-.27-1.26-13.69,2.45c-.17-5.63-.24-5.84-4.83-4.6-2.79.75-6.06.41-8,3.78-.4.69-1.94.57-3.11.86-.34-2.54-2.06-5.3,1-6.17,6.56-1.86,12.49-6.41,19.6-6,.15,0,.33-.49.65-1a7.19,7.19,0,0,1-1.86-1.3c-2.56-3.33-5.36-2.81-8.49-1-1.19.69-2.92,1.26-4.05.81a7.12,7.12,0,0,0-6.43.86c-3,2.12-5.21-.19-7.74-.32-.36,0-1-1-.94-1.47a3.32,3.32,0,0,1,1-2.18c.6-.42,1.54-.2,2.32-.34,3.85-.67,4-.85,4.23-5.58.13-2.31.65-4,3.32-4,4.12,0,8.24-.43,12.36-.79a3,3,0,0,0,2.27-1.08c1.11-2.24,2.89-2.59,4.84-2.73,3-.21,6-.35,9-.66a10.53,10.53,0,0,0,2.62-1l-.21-1.07C594.72,93.22,585.68,96.31,576.12,96Zm-13.75,42.33c.76-1.29,2.36-2,3.54-3,1.46-1.25,4.4.45,4.73-3a12,12,0,0,1,2.36.91,1.55,1.55,0,0,1,.28,2.6c-2.91,2.83-5.59,6.2-10.25,6C562.78,140.77,561.93,139.09,562.37,138.34Z"/><circle cx="547.29" cy="92.53" r="92.53"/><circle cx="547.29" cy="92.53" r="74.8"/><path class="cls-2" d="M547.29,168.82a76.3,76.3,0,1,1,76.3-76.29A76.38,76.38,0,0,1,547.29,168.82Zm0-149.59a73.3,73.3,0,1,0,73.3,73.3A73.38,73.38,0,0,0,547.29,19.23Z"/><path class="cls-2" d="M132.8,84l2.42,125.12-30.75,4.3-1.88-96.77L85.67,119l-.55-28.35Z"/><path class="cls-2" d="M227.57,129.82c10.35,5.77,15.53,14.68,15.77,27.17.46,23.68-17.52,42.42-44.43,46.17S153.49,193.38,153,169.6c-.24-12.58,4.49-22.87,14.59-31.42-8.11-6-12.32-14-12.51-24-.42-21.55,16.21-38.73,41.36-42.24s42.25,8.85,42.67,30.51c.2,10.13-3.69,19.29-11.56,27.38Zm-14.11,30.29c-.17-8.77-6.31-14-15.54-12.75s-15.22,8.25-15,17,6.4,14,15.63,12.74S213.63,168.88,213.46,160.11Zm-29.36-49c.14,7.24,5.6,11.76,13.33,10.68s12.88-7.08,12.74-14.32-5.5-11.77-13.23-10.69S184,103.92,184.1,111.15Z"/><path class="cls-2" d="M340,55.11l.09,4.88L299.13,186.27l-32.21,4.5L300,90.09l-47.11,6.58-.57-29.32Z"/><path class="cls-2" d="M390.84,176.8c-25.27,3.53-40.91-9-41.63-30.92L380,141.59c.15,7.43,4.93,10.19,11,9.34,4.67-.65,9.05-3.88,8.94-9.13-.11-5.86-7.16-6.55-16.1-6.92-14.42-.55-33.57-2.64-34-27.29-.4-20.36,15.19-35.72,38.94-39s39.18,8.33,39.94,28.87l-29.9,4.18c-.13-6.49-4.17-8.95-9.95-8.14-5.12.71-8.51,4-8.42,8.68.11,5.78,7.23,6.13,16.07,6.63,14.7.8,34.24,1.42,34.74,27.18.41,21.24-15.67,37.42-40.31,40.86Z"/><path class="cls-3" d="M0,304.61,11.52,303c0,2.94,2.24,4,4.79,3.67,2.34-.33,4.57-1.92,4.57-4.17,0-2.57-3.16-2.86-7-3.26C8,298.57.52,297.83.52,288.47c0-8.1,5.86-13.59,15.42-15,9.72-1.4,15.3,2.85,15.3,11.21L20,286.33c0-2.6-1.91-3.54-4.23-3.2-2,.28-3.9,1.43-3.9,3.35,0,2.34,3.06,2.67,6.88,3.09,6,.7,13.77,1.59,13.77,11,0,9-6.8,14.62-16.22,16C6.42,318,0,313.58,0,304.61Z"/><path class="cls-3" d="M64.85,298.69v9.83l-26.44,3.82,0-41.11,25.95-3.75v9.79l-14.83,2.14v6l13.32-1.92v9.29l-13.31,1.92v6.16Z"/><path class="cls-3" d="M86.48,292.81l-4,.59V306l-11.17,1.62,0-41.11,17.58-2.54c8.74-1.27,15.08,3.77,15.08,12.37a15.54,15.54,0,0,1-6.43,12.54l8.06,13.79-12.47,1.8Zm-4-9,5.1-.73c3.13-.46,4.93-2.62,4.92-5.19s-1.8-4.19-4.92-3.74l-5.1.74Z"/><path class="cls-3" d="M146.6,255.59l-15.5,43.35-10.41,1.51-15.87-38.83,12.75-1.84,8.29,24.36,8.06-26.72Z"/><path class="cls-3" d="M150.68,255,162,253.36l0,41.11-11.32,1.64Z"/><path class="cls-3" d="M189.32,291.56c-12.34,1.79-21.56-6.14-21.56-18.44a25.12,25.12,0,0,1,21.55-24.75c10.63-1.53,18.86,4.39,20.51,14.57l-11.32,1.64a8.09,8.09,0,0,0-9.16-5.63c-5.74.83-10,6.12-10,12.49s4.21,10.34,10,9.51a11.28,11.28,0,0,0,9.18-8.86l11.42-1.66a24.4,24.4,0,0,1-20.62,21.13Z"/><path class="cls-3" d="M215.28,245.66,226.6,244l0,41.11-11.32,1.64Z"/><path class="cls-3" d="M254.69,282.11c-13,1.89-22.34-5.8-22.34-18.36s9.29-22.94,22.33-24.83S277,244.7,277,257.3s-9.26,22.93-22.27,24.81ZM265.33,259c0-6.43-4.48-10.41-10.65-9.52A12.58,12.58,0,0,0,244,262.07c0,6.4,4.54,10.4,10.71,9.5A12.48,12.48,0,0,0,265.33,259Z"/><path class="cls-3" d="M332.59,249.22c0,12-8.68,21.85-20.93,23.62l-16.41,2.37,0-41.11,16.42-2.37C323.92,230,332.58,237.21,332.59,249.22Zm-11.45,1.66c0-6.1-4-9.57-10-8.7l-4.66.67v20.37l4.66-.68A11.4,11.4,0,0,0,321.14,250.88Z"/><path class="cls-3" d="M364.85,255.33v9.82L338.41,269V227.86l26-3.75v9.79L349.52,236v6.06l13.31-1.93v9.29l-13.32,1.93v6.15Z"/><path class="cls-3" d="M381.86,249.41l11.52-1.66c0,2.94,2.24,4,4.79,3.67,2.33-.33,4.57-1.92,4.57-4.17,0-2.57-3.16-2.86-7-3.26-5.86-.63-13.34-1.36-13.35-10.72,0-8.1,5.87-13.59,15.43-15,9.72-1.4,15.3,2.85,15.3,11.21l-11.2,1.62c0-2.6-1.92-3.54-4.23-3.2-2,.28-3.9,1.43-3.9,3.35,0,2.34,3.05,2.67,6.87,3.09,6,.7,13.78,1.59,13.78,11,0,9-6.8,14.62-16.22,16C388.28,262.77,381.86,258.38,381.86,249.41Z"/><path class="cls-3" d="M449.86,222l-11,1.59v30.91l-11.22,1.62V225.16l-11,1.59v-10.2l33.25-4.8Z"/><path class="cls-3" d="M470.08,237.36l-4.05.58v12.58l-11.18,1.62V211l17.57-2.54c8.75-1.27,15.09,3.77,15.09,12.36a15.6,15.6,0,0,1-6.43,12.55l8.05,13.78L476.66,249Zm-4.05-9,5.1-.74c3.12-.45,4.92-2.61,4.92-5.18s-1.8-4.19-4.92-3.74l-5.11.74Z"/><path class="cls-3" d="M520.46,232.83v9.82L494,246.48l0-41.12,26-3.75v9.79l-14.82,2.15v6l13.32-1.93V227l-13.32,1.93V235Z"/><path class="cls-3" d="M551.53,231.49l-14.37,2.07-2.24,7-12,1.73,15.91-43.42,10.92-1.58,16.29,38.76-12.3,1.78Zm-7.21-20.56-4.44,13.38L548.8,223Z"/><path class="cls-3" d="M610.08,229.7l-3.17-23.22-10.75,25.3-3.3.48L582.1,210.08,579,234.19l-11.32,1.64,6.12-42L585,192.22l9.55,21,9.61-23.76,11.15-1.61,6.09,40.23Z"/><path class="cls-3" d="M626.86,186.16l11.32-1.64v41.12l-11.31,1.63Z"/><path class="cls-3" d="M682.21,178.16l0,41.11L673,220.61l-16.12-20v22.32l-10.83,1.56V183.39l9.78-1.41,15.57,19.31V179.72Z"/><path class="cls-3" d="M731,190.25c0,13.46-8.65,24.27-21.35,26.1-12.43,1.8-21.61-5.93-21.61-18.44a24.83,24.83,0,0,1,21.5-24.73c10.62-1.54,19.32,3.95,21,13.25l-11.71,1.69c-1.47-3.25-5.1-5-9.23-4.35-6.08.88-10.17,5.92-10.17,12.49s4,10.37,10.18,9.48c4.26-.61,7.92-3.23,9.19-6.59l-10.07,1.46v-7.14Z"/><polygon class="cls-2" points="518.78 97.41 512.7 46.23 560.06 66.55 607.42 86.87 566.14 117.73 524.86 148.58 518.78 97.41"/></g></g></svg>