<svg xmlns="http://www.w3.org/2000/svg" viewBox="0 0 554.23 558.93"><defs><style>.cls-1{fill:#fafafa;}</style></defs><title>Recurso 6logo whatsapp</title><g id="Capa_2" data-name="Capa 2"><g id="Capa_1-2" data-name="Capa 1"><path class="cls-1" d="M0,558.93c4.36-13,8.55-25.5,12.76-38q17.67-52.51,35.4-105a6.33,6.33,0,0,0-.64-5.89,250.82,250.82,0,0,1-20.2-42.09A273.43,273.43,0,0,1,25.2,182.52a263.89,263.89,0,0,1,52-89.08C119.65,45.21,172.62,15.06,236,4.13,292.93-5.68,347.79,2,400,27a264.85,264.85,0,0,1,91.74,72,288.65,288.65,0,0,1,25.36,36.5,264.32,264.32,0,0,1,34.27,97.62q10.57,74.47-18.07,144.06A261,261,0,0,1,507,425.61c-28.1,40.79-64.42,72-109.23,93.16a265.44,265.44,0,0,1-84.28,23.91,271.15,271.15,0,0,1-139.6-20.59,221,221,0,0,1-21-10.29,5.37,5.37,0,0,0-4.77-.38q-73.18,23.52-146.4,47Zm68.34-67.42c1.15-.32,1.71-.47,2.27-.65q25.41-8.19,50.84-16.39c10.55-3.39,21.13-6.68,31.65-10.18a6.21,6.21,0,0,1,5.89.7,227.05,227.05,0,0,0,256.5-7.08c6.35-4.64,12.4-9.63,18.46-14.61a109.75,109.75,0,0,0,15.11-15c4.55-5.54,9.76-10.56,14.09-16.26,8.65-11.38,16.77-23.17,22.85-36.18,4.7-10.06,9.44-20.11,12.89-30.74,3.39-10.47,5.86-21.16,8.34-31.84a147.23,147.23,0,0,0,3.2-25.33c1-18.84.65-37.55-3.45-56.12-1.87-8.46-3.46-17-5.69-25.36a108.12,108.12,0,0,0-6-16.48c-1.83-4.09-3.08-8.44-5-12.49A271.19,271.19,0,0,0,477,152.75c-7-11.6-15.29-22.1-24-32.36a160.16,160.16,0,0,0-24-23c-5.86-4.55-11.52-9.36-17.58-13.63a194.73,194.73,0,0,0-37.87-20.81c-7.82-3.24-15.64-6.54-23.68-9.06-37.49-11.78-75.56-13.4-114-5.65a231.25,231.25,0,0,0-53.15,18c-13.18,6.22-25.35,14.17-37.34,22.31-4,2.69-7.59,6.23-11.34,9.42a244.67,244.67,0,0,0-46.1,53,205.06,205.06,0,0,0-21,43.54A228.59,228.59,0,0,0,56.63,311.18a223.22,223.22,0,0,0,16.93,55.4,214.32,214.32,0,0,0,21.91,37.78,4.24,4.24,0,0,1,.59,4.56c-2.92,8.15-5.48,16.43-8.24,24.63-3.72,11-7.55,22-11.26,33C73.83,474.69,71.2,482.84,68.34,491.51Z"/><path class="cls-1" d="M199.6,154.16a40.71,40.71,0,0,0,5.27,0c5.46-.67,9.31,1.61,12,6.2,3.21,5.47,5.34,11.43,7.57,17.32,2.82,7.47,6.06,14.76,9.17,22.11,2.23,5.24,4.18,10.6,6.72,15.68,2.75,5.53,1.32,10.35-1.67,15a142.7,142.7,0,0,1-16.53,21c-3.38,3.56-3.6,7-.91,11.54a198.71,198.71,0,0,0,37.33,46.46,142,142,0,0,0,22.11,17.06A211,211,0,0,0,308,340.33c2,.86,4,1.82,6.07,2.6,5.24,2,8.16,1.39,11.82-2.79,7.08-8.06,14.05-16.22,20.3-24.95,4.58-6.39,7.17-7.36,14.54-4.67,7.91,2.89,15.37,6.82,22.94,10.48,10.36,5,20.66,10.18,31,15.16,4.16,2,6.19,4.9,6.1,9.66-.13,7.26-2,14.12-3.57,21.11-3.06,13.57-13.24,20.6-24,27.21a70.44,70.44,0,0,1-42.77,10.6c-9.26-.64-18.05-3.61-26.8-6.52-15.36-5.12-30.68-10.41-45.27-17.47-15.55-7.52-29.56-17.45-42.71-28.6a271.68,271.68,0,0,1-20.57-19.44,344.51,344.51,0,0,1-51.06-69.1c-6.28-11.15-10.83-23.16-12.28-35.94-2.65-23.45,3.15-44.4,19.54-62,4.66-5,9.41-9.61,16.41-11C191.54,153.9,195.36,154.36,199.6,154.16Z"/></g></g></svg>