<svg xmlns="http://www.w3.org/2000/svg" viewBox="0 0 1959.36 846.08"><defs><style>.cls-1{fill:#fff;}.cls-2{fill:#00e0cc;}.cls-3{fill:#faf7fa;}</style></defs><title>Recurso 2</title><g id="Capa_2" data-name="Capa 2"><g id="Capa_1-2" data-name="Capa 1"><path class="cls-1" d="M356.81,844.92v-5q0-94.46,0-188.89a30.51,30.51,0,0,1,2.53-13.12c5.37-11.61,14.49-17.89,27.25-18.12,16.09-.3,32.18-.1,48.27-.1q70.14,0,140.28,0c2.52,0,5.12-.54,7.5.54,1.33,1.57.87,3.36.87,5q0,95.09,0,190.18c0,15-9,26.26-23.33,29.94a30,30,0,0,1-7.66.7q-94.92,0-189.84,0C361,846,359.21,846.41,356.81,844.92ZM529.54,661.28a6.36,6.36,0,0,0-1.82-.23q-23.06,4.1-46.09,8.27c-21.88,4-43.74,8-65.63,12-6.61,1.19-6.67,1.09-6.67,7.36q0,54.57,0,109.12c0,1.86-.53,3.87,1,5.57,2.3.82,4.64.24,6.91-.17q42-7.54,83.94-15.19c8.41-1.53,16.8-3.2,25.23-4.65,2.84-.48,4.17-1.82,4-4.7-.07-1.06,0-2.13,0-3.2q0-53.92,0-107.83C530.34,665.51,530.91,663.3,529.54,661.28Z"/><path class="cls-1" d="M1109.17,653.62h28.15V704c2.69.64,3-1.24,3.84-2.25,12.48-15.45,27.77-20.24,47-14.42,18.29,5.52,29.9,18.06,35.75,35.8a75.84,75.84,0,0,1-2.51,55.23c-11,25.59-36.51,39.19-64.5,34.91-28.93-4.44-46.48-24.57-48.18-55.44-.32-6-.18-12-.18-18q0-39.51,0-79C1108.57,658.52,1108.09,656.15,1109.17,653.62Zm88.92,98.22c-.42-9.24-1-16-3.14-22.64-4.65-14.25-16.33-20.57-31.2-18.65-12,1.54-18.84,9.69-22.68,20.37-4.82,13.45-3.66,27,1,40.29,4.2,12,13.68,17,25.79,17.79,11.58.72,19.67-4.84,25.07-14.68A45.42,45.42,0,0,0,1198.09,751.84Z"/><path class="cls-1" d="M1521.71,742.76l9-11.58a353.33,353.33,0,0,1,28.87-33.59c6.41-6.44,13.9-9.8,23-9.79h18.87c-18,18.81-34.61,37.25-50.69,57.2l51.92,61.51c-5.71,5.79-12.41,6.42-19.35,5.49a29.74,29.74,0,0,1-17.8-9.48c-12.31-12.87-23.4-26.74-34.19-40.87-2.47-3.23-4.9-6.5-7.38-9.72-.74-1-1.36-2.16-3.44-2.37V810.8h-28c-1.28-4.26-1.74-148.31-.43-157.72h28.32v89.34Z"/><path class="cls-1" d="M1311.14,736.76c2.31-15.92-4.24-24.92-18.92-26.77a75.23,75.23,0,0,0-36.1,3.85l-5.78,2.15c-.73-6.24-.26-12.2-.35-18.14,0-2.35,1.87-3.21,3.45-4.24a52.62,52.62,0,0,1,22.87-8,81.88,81.88,0,0,1,28.77,1.3c18.31,4.34,29.37,15.92,33.68,34a73.82,73.82,0,0,1,1.63,10.78c1,12.18.58,24.39.44,36.58-.29,25.13-14.7,41.3-39.78,44.69a82.33,82.33,0,0,1-32.54-1.88,50.61,50.61,0,0,1-19.27-9.92c-18.26-15.06-17.37-46.28,7.38-57.48a81.51,81.51,0,0,1,29.88-6.9C1294.61,736.43,1302.76,736.76,1311.14,736.76Zm.46,19.72c-11.07-.09-21.94-.73-32.53,2.38-7.44,2.19-10.92,6.82-11.16,13.85-.26,7.37,3.1,12.63,10.16,15.37a33.51,33.51,0,0,0,18.91,1.59c8.4-1.66,13.4-6.46,14.58-14.83A76.58,76.58,0,0,0,1311.6,756.48Z"/><path class="cls-1" d="M940.31,762.17a28.42,28.42,0,0,0,12.28,20.53,37.15,37.15,0,0,0,19.13,6.85c11,.81,21.84-.17,32.27-4.14,1-.37,1.86-1.14,3.42-.58.92,5.92.25,12.06.38,18.17.05,2.35-1.83,3.25-3.5,4.17a39.23,39.23,0,0,1-12.72,4.3c-11.72,1.9-23.44,2.67-35.13-.15a59.9,59.9,0,0,1-46.34-57.6c-.3-13.49,1.83-26.45,8.1-38.54,14.45-27.88,50.59-39.32,77.93-24.46,16.58,9,24.45,23.47,24.45,42.15,0,11.58-5.66,19.38-16.62,23.38-9,3.27-18.33,4.41-27.77,4.74-9.64.34-19.3.2-29,.33C945.13,761.35,943,760.89,940.31,762.17Zm-.44-19.12c14.06-.22,27.73.71,41.27-1.9a25.62,25.62,0,0,0,6.62-2.35,9.24,9.24,0,0,0,5-7,17.93,17.93,0,0,0-9.23-18.94c-13.61-6.91-36.09-5.25-42.72,17.71A35.66,35.66,0,0,0,939.87,743.05Z"/><path class="cls-1" d="M731.61,810.89H704.38c-1.49-1.49-1-3.29-1-4.94q0-33.39,0-66.78a63.22,63.22,0,0,1,1.77-15.26c5.38-21.58,21.77-35.75,44.66-38.42,11-1.29,21.89-.49,32.15,4,19.23,8.5,29.11,24.06,29.91,44.34,1,25.4.25,50.88.25,76.63-4.66,1.44-9.36.48-14,.65s-9.36,0-13.78,0c-1.73-2.62-1-5-1.06-7.32-.06-20.12,0-40.24,0-60.36,0-5.36-.16-10.7-1.69-15.9-3.4-11.57-11.9-17.79-24.44-17.84-11.36-.06-19.71,6.34-23.14,17.67a45.44,45.44,0,0,0-1.56,13.33q0,31.79,0,63.57C732.41,806.43,733,808.62,731.61,810.89Z"/><path class="cls-1" d="M1387.44,811h-26.92c-1.51-1.71-1-3.5-1-5.14-.07-22.26-.06-44.52-.16-66.78a56.63,56.63,0,0,1,3.16-20.19c7.57-20.42,23-30.75,44-33.34a62.6,62.6,0,0,1,24.25,1.49c20.75,5.63,34.81,22.57,36.82,44.55.39,4.26.46,8.55.47,12.83,0,19.91,0,39.81,0,59.72v6.72h-28c-1.55-2-.78-4.41-.79-6.65q-.11-30.51,0-61a58,58,0,0,0-1.61-14.64c-3.16-12.23-12.06-18.78-25.08-18.69-11.78.09-20.39,7.17-23.19,19.25a59,59,0,0,0-1.27,13.4q.06,30.82,0,61.65C1388.15,806.21,1388.57,808.37,1387.44,811Z"/><path class="cls-1" d="M864.23,684h42.06c1.18,4.9.88,9.4.45,13.8-.65,6.59-5.16,10.06-11.12,11.84a32.68,32.68,0,0,1-9.57,1c-7.25-.05-14.51,0-21.28,0-2,1.84-1.44,3.66-1.45,5.28q-.08,23.43,0,46.88a59.82,59.82,0,0,0,.53,7.68c1.44,10.62,7.48,16.43,18.25,17.3a59.89,59.89,0,0,0,18.51-1.61c1.41-.33,2.83-.63,4.59-1,.84,5.76.49,11.06.31,16.34-.08,2.26-1.77,3.83-3.33,5.32a22.14,22.14,0,0,1-12,5.69A60.44,60.44,0,0,1,861,810.25c-12.08-4-19.89-12.25-23.74-24.25a53.91,53.91,0,0,1-2.65-16.43q-.13-56.84-.15-113.67a23.77,23.77,0,0,1,.35-2.81h29.47Z"/><path class="cls-1" d="M651,653.07h28.21V810.82H651.54C650.28,806.52,649.77,663.44,651,653.07Z"/><path class="cls-1" d="M1064.88,810.91h-28.53c-1.44-1.51-1-3.08-1-4.52q0-36.55,0-73.12a60.16,60.16,0,0,1,2.63-18.34c5.56-17.48,17.62-27.31,35.79-29.59a45.21,45.21,0,0,1,18.47,1c2.92.85,4.22,2.21,4.1,5.39-.22,5.95-.06,11.92-.06,17.73-2.36,1.72-4.51.52-6.52.47-14-.31-21.71,5.94-24.15,19.55a61.81,61.81,0,0,0-.71,10.86v70.6Z"/><path class="cls-1" d="M981,246.74a197.81,197.81,0,0,0-3-22.62,183,183,0,0,0-23.44-60.86,185.9,185.9,0,0,0-39.43-46.13,188.23,188.23,0,0,0-43-27.31,185.92,185.92,0,0,0-56.53-15.7A175.63,175.63,0,0,0,791.13,73a200.79,200.79,0,0,0-23,1.8,182.74,182.74,0,0,0-30,6.71,187.56,187.56,0,0,0-101.1,77.16,183.47,183.47,0,0,0-18,35.85,60.61,60.61,0,0,0-3.33,10.35,4.61,4.61,0,0,0-.92,2.32,195.2,195.2,0,0,0-7.54,47.32c-.21,4.55-.07,9.11.16,13.67.29,6.06.89,12.06,1.71,18.06a180.7,180.7,0,0,0,7.09,31.43,109.14,109.14,0,0,1,5.24,27.18,121.71,121.71,0,0,1-.63,23.05,112,112,0,0,1-5.38,23,36.15,36.15,0,0,0-1.81,19.13c2.9,15.26,12,25.25,26.72,29.84,7.93,2.48,15.88,1.69,23.7-1.11a106.86,106.86,0,0,1,29.21-5.88,114.39,114.39,0,0,1,19.23.28,111.86,111.86,0,0,1,21.76,4.19,205.79,205.79,0,0,0,24.82,6.38,194.83,194.83,0,0,0,24.77,3.05c4.84.25,9.69.18,14.54.19a147.7,147.7,0,0,0,18.33-1.21,173.24,173.24,0,0,0,20-3.55A95.84,95.84,0,0,0,848.67,439c.63-.14,1.26-.24,1.87-.43A187,187,0,0,0,981.21,270.67,180.32,180.32,0,0,0,981,246.74Zm-161.75-56.9a11.65,11.65,0,0,1,11.79,11.84,11.86,11.86,0,0,1-23.71.13A11.65,11.65,0,0,1,819.27,189.84Zm-7.65,30.25c4.78,0,9.56.12,14.34,0,4.09-.14,5.27,1.46,5.24,5.34-.11,12.62,0,25.24,0,37.87s-.07,25.25,0,37.87c0,3.95-1.13,5.55-5.42,5.39-4.7-.17-9.41,0-14.12,0-3.06,0-4.31-1.21-4.31-4.25q0-38.94,0-77.88C807.35,221.25,808.53,220.1,811.62,220.09ZM752.4,269.43a50.56,50.56,0,0,1-3.11,13.91C744.75,295,736.18,302,724.05,304.79a45.29,45.29,0,0,1-22.6-.21,12.91,12.91,0,0,0-5.27-.61,7.85,7.85,0,0,0-6.42,6.34,16.85,16.85,0,0,0-.33,5.1c.34,3.21.14,6.41.19,9.61q.06,3.54,0,7.06a9.79,9.79,0,0,1-10.07,10h-3.42a9.9,9.9,0,0,1-10.3-9.8c0-.43,0-.85,0-1.28q0-49.75-.07-99.51a15.74,15.74,0,0,1,.49-4.87,8.5,8.5,0,0,1,6.47-6.16l1.66-.4a1.89,1.89,0,0,1,2.57,0c3.26.51,6.53,1,9.8,1.5a17.43,17.43,0,0,0,7.33-.18c3.08-.24,5.92-1.49,8.89-2.18,10.16-2.36,20.1-1.79,29.63,2.66a30,30,0,0,1,13.19,12.11c.4.67.84,1.31,1.27,2a58,58,0,0,1,4.51,14A75.39,75.39,0,0,1,752.4,269.43ZM790.75,302a4.91,4.91,0,0,1-.71,2.86,3.86,3.86,0,0,1-3.49,1.65c-5.13,0-10.27,0-15.4,0-3,0-4.26-1.32-4.26-4.31q0-25.56,0-51.1c0-.79,0-1.57-.07-2.35s.08-1.57.08-2.35q0-27.27,0-54.55c0-3,1.28-4.26,4.29-4.27q7.59,0,15.18,0c3,0,4.28,1.33,4.36,4.3,0,.5,0,1,0,1.49v95.2c0,.85,0,1.7.08,2.56C790.79,294.73,790.75,298.36,790.75,302Zm121.92,4.5a38.14,38.14,0,0,1-4.91-.15,9.75,9.75,0,0,1-8.24-9.93c0-15.91,0-31.82,0-47.73,0-3.87-.52-7.69-2.83-11-2.93-4.18-7.08-5.83-12-5.48-9.37.66-12.79,8.33-12.86,14.86-.1,9.41-.06,18.83-.07,28.25,0,7-.1,14,0,21a10.07,10.07,0,0,1-10.12,10.19c-2.05,0-4.12.22-6.17-.3a9.86,9.86,0,0,1-7.63-9.62q0-33,0-65.92a10.58,10.58,0,0,1,8.56-10.12,26.53,26.53,0,0,1,11.86.47,31.61,31.61,0,0,0,17.25-1,37.74,37.74,0,0,1,14.93-2c4.15.36,8.22,1.11,11.88,3.21,6.29,3.6,9.45,9.25,10.38,16.29.6,4.48.34,9,.37,13.46,0,5.92,0,11.84,0,17.77,0,9.13-.12,18.26,0,27.39A10.33,10.33,0,0,1,912.67,306.49Z"/><path class="cls-2" d="M676.94,220a3.23,3.23,0,0,1-2.57,0A1.89,1.89,0,0,1,676.94,220Z"/><path class="cls-1" d="M687.63,263.22c0-8.11,1.45-14.8,5-21a19.52,19.52,0,0,1,9-8.51c7.55-3.37,15.57-1.08,20.94,5.7a32.15,32.15,0,0,1,6.12,14.19,45.86,45.86,0,0,1-1.32,23c-1.69,5.32-4.4,10.06-9.38,13.09A18,18,0,0,1,694.93,286a31.3,31.3,0,0,1-6.38-14.29A38.32,38.32,0,0,1,687.63,263.22Z"/><path class="cls-3" d="M103.51,343.49c-5.39,5.83-10.21,11.11-16.42,14.81-5.82,3.48-12,5.56-18.83,3.81-7.22-1.83-11.59-6.58-13.81-13.53C52.3,341.84,52.82,335,54,328.21c3-17.95,8.8-35.09,15.49-51.94a33.66,33.66,0,0,0,2.72-12.77c0-2.74-.25-5.49.34-8.21.71-3.2,2.18-4.66,5.38-4.88,11.73-.8,18,7.16,16,17-2.17,10.5-6,20.52-9,30.77C83,304.57,81,311,80.05,317.59a31.92,31.92,0,0,0-.29,7.11c.48,5.9,5.25,8.62,10.59,6,4.33-2.1,7.36-5.65,10.22-9.35,4.41-5.7,7.21-12.27,10-18.86,6.9-16.56,12.28-33.65,17.7-50.72,3.15-9.93,9.95-15.92,19.95-18.43a15,15,0,0,1,3.27-.35c6.46-.19,8.08,1.6,7.09,8-1.36,8.79-4.29,17.2-6.64,25.74-6.22,22.56-12.61,45.07-18.93,67.6q-6.45,23-12.89,45.94c-.81,2.9-.73,2.92,2.3,2.34,23.46-4.43,46.92-8.85,70.58-12.12C205,368.9,217,367,229.06,365.25c1.09-.16,1.72-.62,1.9-1.61,1.47-7.7,2.9-15.41,4.34-23.11-1.31-.55-1.88.38-2.58.82A37.4,37.4,0,0,1,221,346.63c-9.06,2.13-15.69-1.86-18.12-10.85a3.07,3.07,0,0,0-1-2.2,57.12,57.12,0,0,1-5.53,9.47C188.45,353.62,177,356.8,165,351.37c-6.59-3-9.85-8.71-11.64-15.44-3.63-13.67-3-27.37-.06-41,3.55-16.59,9.42-32.27,18.94-46.45a60.15,60.15,0,0,1,16.05-16.69c9.15-6.2,21.57-5.13,28.47,1.56,1,1,1.7.88,2.12-.53q.42-1.44.9-2.88c1.53-4.67,3.56-6.13,8.5-5.94a24,24,0,0,1,4.59.74c6.12,1.48,8.62,5,7.55,11.23-.92,5.31-2.29,10.54-3.36,15.83-3.23,15.86-7.35,31.53-10,47.5-.83,5-1.62,9.95-.73,15,.68,3.86,1.89,4.58,5.43,3.19,5.59-2.2,9.24-5.67,10.42-12.15,4.75-26.09,9.93-52.1,15-78.13,1.29-6.63,3.42-8.09,10.12-7,.37,0,.73.11,1.09.18,9.2,1.76,9.71,2.47,8.29,11.57-.06.43-.08.86-.13,1.33,1.18.22,1.26-.73,1.61-1.26a53,53,0,0,1,10.08-11.52c7.09-5.91,18-7.19,25.21-3,5.32,3.11,7.48,8.36,9,13.91,3.69,13.8,3.2,27.71.64,41.62-2.91,15.81-7.3,31.16-15.07,45.36a58.9,58.9,0,0,1-10.88,14.36c-12.87,12.34-29.9,7.16-38.42-1.07-.61-.59-1-1.91-2-1.5s-.66,1.61-.79,2.47c-1.33,8.87-2.56,17.74-3.93,26.6-.37,2.42.45,2.68,2.67,2.39,33.66-4.31,67.28-9.07,101.15-11.53a41.59,41.59,0,0,1,14.44,1.12c7.77,2.2,10.86,12.67,5.54,18.74-1.94,2.22-4.77,2.61-7.41,3.21a205.16,205.16,0,0,1-26.33,3.81c-20.95,2-41.78,5-62.63,7.75-9.8,1.31-19.57,2.74-29.38,3.95-2.05.25-2.74,1.11-3.19,3-1.28,5.33-2.4,10.78-6.83,14.65-2.75,2.4-5.86,3.94-9.55,2.47s-4.91-4.45-5.17-8.07a32.84,32.84,0,0,1-.07-3.29c.17-5.22.18-5.25-4.85-4.53-17.57,2.52-35,6-52.37,9.44-18.23,3.56-36.41,7.3-54.46,11.69-2.9.7-4.38,1.93-5.3,4.88-5.78,18.52-12.39,36.75-22.06,53.66-7.94,13.88-17.12,26.86-29.76,37-9.08,7.24-19.25,11.72-31.19,10.27A28.71,28.71,0,0,1,.25,493.94c-1.11-10.71,1.62-20.69,5.52-30.45,8.37-20.92,22.48-37.2,40.53-50.38,12.12-8.85,24.86-16.43,39.15-21.19A5.59,5.59,0,0,0,89.27,388q6.78-21,13.66-42C103.12,345.42,103.21,344.79,103.51,343.49Zm199-85.71c-.27-4.76-.2-9.93-3.08-14.49a5.55,5.55,0,0,0-7.34-2.33,20.17,20.17,0,0,0-7.94,6.14c-4.86,5.88-7.66,12.83-10,20-4.67,14.36-7.93,29.06-11,43.82-.56,2.7.26,4.1,2.53,5.24,5.25,2.62,13.23.89,18.14-4,5.35-5.3,8.2-12,10.74-18.88C298.76,281.91,301.89,270.31,302.48,257.78Zm-128,44c.08,7.56.55,12.92,3.59,17.65,3.75,5.83,9.92,6.18,14.35.85a36,36,0,0,0,5.08-8.1c4.53-9.92,7.63-20.34,10.74-30.75,2.33-7.78,4.78-15.56,6-23.62,1-6.57-3.41-9.84-9.64-7.58a32.3,32.3,0,0,0-14.24,9.88C179.9,272.86,175.5,287.8,174.48,301.82ZM24.05,485.62C24,493.3,28.8,496.3,35.34,493a30.68,30.68,0,0,0,7.25-5.36C51.76,479,58.37,468.5,64.2,457.48c5.34-10.1,10.43-20.32,13.82-31.29.19-.65.92-1.41.2-2s-1.35.18-2,.48a99.27,99.27,0,0,0-47.79,46.47A38.6,38.6,0,0,0,24.05,485.62Z"/><path class="cls-1" d="M232.51.23c6.41-.3,12,1.29,17.63,1.76,6.76.55,12.91,2.93,19,5.19A64.46,64.46,0,0,1,280,13c2.38,1.47,5.23,2.59,7.08,4.34,2.28,2.16,4.74,4.19,7.11,6.18a88.84,88.84,0,0,1,13.54,15c4.23,5.61,6.93,12,9.69,18.47,1.55,3.6,2.3,7.44,3.68,11.06.87,2.26.94,4.62,1.46,6.89A66.18,66.18,0,0,1,323.76,96a101.63,101.63,0,0,1-3.36,19.19,67.94,67.94,0,0,1-4.43,10.5c-10.77,21.52-26.68,37.63-49.16,47a92.46,92.46,0,0,1-40.13,6.95,76.73,76.73,0,0,1-24.1-4.6c-4.32-1.65-7.47.73-10.62,2.74-5.83,3.73-11.44,7.81-17.18,11.68a25.85,25.85,0,0,1-4.53,2.54c-4.58,1.89-7.21.1-7.36-4.91s.88-10,1.55-15c.54-4,1.06-8,1.69-11.93.82-5.2-1.16-9.21-4.51-13.14-11.82-13.87-18.29-30-20-48.18a89,89,0,0,1,18.58-62.76c13-16.76,30-27.35,50.46-32.64,3.17-.82,6.45-1.23,9.67-1.83C224.56.89,228.73-.56,232.51.23Zm-22.44,58c-2.59-.48-5.82.31-8.95,1.22C193.78,61.59,187,67.73,187,76.22a19.31,19.31,0,0,0,11.77,17.93c6.36,2.72,12.75,5.35,19.06,8.18,3.45,1.55,6.44,3.72,8.06,7.42,2,4.61,1.74,11-4.28,13.29-4.94,1.84-9.9,1.55-14.8.46-2.39-.53-4.91-1.13-6.78-3.21a16.53,16.53,0,0,1-4.44-11.37c0-3.16-2.22-4.82-5.74-4.73-2.86.06-4.11,1.56-4.3,4.81-.13,2.07.62,3.91,1,5.86a24.61,24.61,0,0,0,10.63,15.62c9.29,6.22,25.47,4.74,34.31-2.22,8.41-6.6,9.22-19.77,1.78-27.44-4.53-4.65-10.28-7.17-16.13-9.5-1.39-.56-3.22-.09-4.53-.74-3.57-1.75-7.43-2.81-10.75-5.16-3-2.1-5.55-6.33-5.15-9.68.35-2.88,4.23-7.81,6.69-8.51,5.81-1.63,11.4-1.81,16.74,1.77,3.55,2.38,6.69,4.78,6.16,9.67a5.64,5.64,0,0,0,.09,1.64c.54,2.79,3,5.18,5.58,5.13a4.2,4.2,0,0,0,4.18-4c.87-6.52-.49-12.44-5.81-16.8C224.72,60,218.1,58.08,210.07,58.23Zm33.73,69.33c0,2.63,1.2,4.34,3.47,5.07,2,.64,3.94.33,5.08-1.56,2.41-3.95,4.7-8,6.94-12,4-7.16,7.86-14.35,11.78-21.54,5.92-10.86,11.86-21.71,17.73-32.6a5.07,5.07,0,0,0-9-4.72c-3.88,7-7.68,14-11.51,21-7.65,14-15,28.27-23,42.09C244.45,124.74,243.69,126.2,243.8,127.56Z"/><path class="cls-3" d="M326.49,297.93a121.21,121.21,0,0,1,15.17-58.43c3.14-5.78,6.18-11.66,10.36-16.77,6.75-8.25,13.91-16.3,25-18.47,8.66-1.69,17.22-1.25,24.13,5.42,5.21,5,6.74,11.48,5.85,18.38a60.59,60.59,0,0,1-17,35.13,58.12,58.12,0,0,1-34.34,17.39c-1,.14-1.79.34-2.2,1.33-2.66,6.37-4.17,12.89-2.13,19.75,1.39,4.7,5.1,7.07,10,6.63,6.9-.61,12.35-4.31,17.57-8.37A54.19,54.19,0,0,0,390,289a11.87,11.87,0,0,1,2.09-2.16c2.92-2.4,5-2.15,7,1a28.59,28.59,0,0,1,4.15,11.51,8.55,8.55,0,0,1-2.23,7.1c-10,11.1-21,20.92-35.39,26-5.88,2.08-11.84,3-18,1.74-8.51-1.74-14.09-6.91-17.48-14.72C327.3,313,326.78,306,326.49,297.93Zm59.77-65.68c0-2.41-.4-4.65-2.66-5.94s-4.61-.67-6.72.63a13.69,13.69,0,0,0-2.58,2c-7.79,8-12.26,17.79-15.66,28.19-.57,1.75.08,2.08,1.77,1.66a38.35,38.35,0,0,0,16-8.62C381.86,245.44,385.76,239.75,386.26,232.25Z"/><path class="cls-1" d="M1446.21,254.41c27.72,5.41,41.07,30.82,30.86,57.91-6.47,17.18-19.49,27.68-36,34.39-20,8.09-40.86,9.07-62,8.53a153.43,153.43,0,0,1-26.38-3c-19.15-3.86-26.3-18.39-23.31-36,3.24-19,8-37.83,12.29-56.7,6.48-28.82,13.09-57.61,19.57-86.43.5-2.22.91-3.66,3.74-4,21.66-3,43.4-4.49,65.24-3.51,14.71.66,29,3.56,41.78,11.28,24.79,15,26,46.23,2.79,64.51A66.93,66.93,0,0,1,1451,253C1449.58,253.39,1448.18,253.83,1446.21,254.41Zm-49,15.72c-3.93,0-7.09.12-10.24,0-2.15-.11-3.18.56-3.67,2.76-3.13,14-6.49,28-9.57,42.06-1.39,6.36,1,9.14,7.37,9.16,7.82,0,15.66-.07,23.35-1.57,8.62-1.68,16.71-4.55,23.24-10.93,10.11-9.87,10.88-32.37-8.13-38.49A67.52,67.52,0,0,0,1397.24,270.13Zm8.78-29.57c10.43.34,20.94-1.11,30.29-7,7.41-4.68,11.47-11.53,10.51-20.48s-7-13.31-15.36-15.35c-9.7-2.36-19.39-1.47-29.12-.7a2.27,2.27,0,0,0-2.4,2.09c-2.6,11.56-5.39,23.07-7.87,34.65-1,4.5,1.15,6.68,5.86,6.8C1400.49,240.61,1403.05,240.56,1406,240.56Z"/><path class="cls-1" d="M1741.69,166.15c16.92,0,32.12.28,46.8,4.95,19.72,6.28,33.26,18.31,36,39.88,1.93,15.13-1.4,29.26-9.08,42.32-12.07,20.54-30.72,31.93-53.31,37.65a123.18,123.18,0,0,1-44.73,2.56c-3.71-.42-4.9.76-5.59,4.2-2.32,11.6-4.9,23.16-7.5,34.71a54.44,54.44,0,0,1-2.58,8.13c-3.91,9.8-11.11,15-21.78,15.13-7.37.07-14.76-.11-22.13.08-3.15.07-3.37-1.08-2.78-3.74q17-76,33.88-152c2-8.93,3.94-17.87,5.75-26.84.47-2.34,1.62-3.06,3.85-3.44C1713.37,167.26,1728.3,165.7,1741.69,166.15Zm7.08,31.93c-2.71,0-5.41.09-8.11,0-3-.13-4.33,1.08-5,4.21-3.36,16-7,31.9-10.62,47.83-1.54,6.82.9,10.5,7.81,11a73.07,73.07,0,0,0,17.53-.8c18.79-3.22,32-16.56,34-35,1.35-13-3.72-24.15-18.58-26.62C1760.11,197.71,1754.49,197.06,1748.77,198.08Z"/><path class="cls-1" d="M1640.83,307.05c-2.66,11.61-4.68,22.06-7.5,32.28-2.78,10-11.28,13.55-20.39,15.48-24.79,5.22-49,4.19-72-7.6-18.41-9.45-29.73-24.9-34-44.74-8.7-40.54-.31-77.43,27.54-108.64,17.08-19.14,39.43-28.81,65-31.14a109.17,109.17,0,0,1,53.72,8.27c11.9,5.09,15.55,13,12.22,25.34-1.44,5.32-3,10.59-4.63,16.15-13.51-9.91-28.67-13.42-44.74-13.59-20.51-.21-36.7,8.49-48.39,25-13.9,19.63-19.62,41.36-14.12,65.22,4.5,19.53,20.12,31.73,40.14,32.67C1610.8,322.57,1626.13,318.31,1640.83,307.05Z"/><path class="cls-1" d="M1252.68,183.61c7,2.61,12.67,7.27,18.56,11.57a163.43,163.43,0,0,1,35.82,35.74c10.41,14.28,10.67,32.31.93,47.06-8.27,12.53-19.12,22.6-30.69,32-12.23,9.9-25,19-38.9,26.5-20.08,10.78-40.3,6.16-53.68-13.52-4.65-6.84-4.61-6.46,2.64-10.09,24.32-12.17,46-27.65,60.84-51.08a51.49,51.49,0,0,0,6.27-12.84c7.2-14.74,8.55-30.23,5.94-46.24C1259.28,195.73,1255.69,189.79,1252.68,183.61Z"/><path class="cls-1" d="M1896.92,183.58c8,2.89,14.4,8.34,21,13.33a169.2,169.2,0,0,1,32.9,33.06,40.82,40.82,0,0,1,1.77,47.5c-9,13.87-21.19,24.78-33.94,35.07a254,254,0,0,1-32.57,22.33c-23.18,13.4-45.34,7.81-59.6-16.15-1.88-3.15.45-3.51,2.26-4.35a170.55,170.55,0,0,0,37.64-23.43c13.81-11.51,25.64-24.72,32.73-41.58a77.82,77.82,0,0,0,6.84-27.72C1906.8,208.08,1904.69,195.14,1896.92,183.58Z"/><path class="cls-1" d="M1252.68,183.61c3,6.18,6.6,12.12,7.73,19.07,2.61,16,1.26,31.5-5.94,46.24a159.88,159.88,0,0,0-49.21-35c-3.52-1.6-3.62-3.3-1.92-6.41,6.43-11.69,14.37-21.87,26.93-27.44,7.21-3.2,14.3-3.12,20.69,2.26.16,1,.42,2,1.8,1.31Z"/><path class="cls-1" d="M1896.92,183.58c7.77,11.56,9.88,24.5,9,38.06a77.82,77.82,0,0,1-6.84,27.72c-14-15.4-30.85-26.92-49.67-35.61-2.89-1.34-3.26-2.43-1.77-5.16,6.43-11.74,13.93-22.4,26.6-28.24,7.77-3.58,15.08-3.28,21.73,2.56l1,.71Z"/><path class="cls-1" d="M1252.76,183.66c-1.38.64-1.64-.27-1.8-1.31C1251.92,182.29,1252.63,182.57,1252.76,183.66Z"/><path class="cls-1" d="M1897,183.62l-1-.71C1896.59,182.79,1897.16,182.69,1897,183.62Z"/></g></g></svg>