<svg xmlns="http://www.w3.org/2000/svg" viewBox="0 0 717.81 311.1"><defs><style>.cls-1{fill:#e20613;}.cls-2{fill:#fff;}</style></defs><title>Recurso 2</title><g id="Capa_2" data-name="Capa 2"><g id="Capa_1-2" data-name="Capa 1"><path class="cls-1" d="M565.76,94.28a49.46,49.46,0,0,0-1.39-5.06c-.28-.73-1.22-1.69-1.82-1.66-3.43.19-5.85-2-8.49-3.83a46.18,46.18,0,0,0-6.5-3.92c-1.88-.85-2.26-2.19-1.92-4.07.51-2.88,2.07-4.34,5-5,.9-.2,1.74-.74,2.63-1a74.54,74.54,0,0,1,7.22-1.9c3.39-.6,6.85-.68,10.21-1.4,3.16-.69,4.33-3.23,3.42-7.1-.73-3.1-3-1.29-4.68-1.47-.14,0-.29.1-.45.13-4.4.81-5.39-.17-5-5a16.43,16.43,0,0,1,.51-3.06c1.2-4.23,2.76-5.63,6.81-5.71,3.09-.07,6.18.08,9.27.16a26.26,26.26,0,0,1,.91-3.21,5.8,5.8,0,0,1-1.21-.66c-.53-.37-1.52.06-2.3.13-4.28.37-5.21-.91-3.37-5.26A86.39,86.39,0,0,1,579,27.29c-3.21-1.43-6.43-2.76-10-1.35-.37.15-1.12,0-1.27-.26-1-1.94-2.22-1.16-3.6-.58a2.37,2.37,0,0,1-2.19-.33c-1.79-1.67-3.79-1.12-5.81-1.08-4,.09-8.09.16-12.12-.06-3.2-.17-6.36-.92-9.56-1.14-4.36-.31-8.74-.32-13.11-.55a5.17,5.17,0,0,1-2-.89c-.89-.48-1.71-1.31-2.64-1.47-3.23-.55-6.5-.9-9.75-1.29-2.49-.29-5.06-1.1-7.44-.65s-3.83-3.41-6.2-.95a1.56,1.56,0,0,1-.61-.61c-.82-2.66-2.9-2.37-4.7-2.28-4.36.22-8.72.55-13.06,1.07-7.91.94-15.8,2.1-23.71,3.09-6.82.86-13.65,1.68-20.48,2.41-4.33.46-8.75.33-13,1.19A134.2,134.2,0,0,1,388,24.34a22.66,22.66,0,0,0-5.12.47c-2.88.6-5.59,2.79-8.7.37-.72-.56-2.43.16-3.58.61-5,1.94-10.05,2.21-15.25,1.87a16.73,16.73,0,0,0-7.33.79,10.45,10.45,0,0,1-5.74.92c-.89.17-1.77.32-2.66.46-6.81,1.06-13.67,1-20.53,1.36-7.05.33-14.09.75-21.14.68C247,31.36,196.4,37,146.1,46.11q-18.61,3.38-37.17,7.28c-10.28,2.15-20.56,4.23-30.52,7.87A85.9,85.9,0,0,0,55.32,73.81a6.42,6.42,0,0,1,.32,3A12.46,12.46,0,0,1,54,81.12c-2.2,3.32-3.13,7.11-4.07,11-1.31,5.33-2.86,10.59-4.29,15.88a17.1,17.1,0,0,0-.37,2c-1.6,12.18-3.3,24.34-4.72,36.55-.59,5.13-.28,10.38-.91,15.5a55.38,55.38,0,0,0,.84,17.53,107.64,107.64,0,0,1,2.33,15.31c.28,5.81,1.16,11.26,3.66,16.38a21,21,0,0,1,1.4,4.34c.8,3.32,1.36,6.71,2.31,10a7,7,0,0,0,2.4,3.63c.73.5,2.15-.22,3.46-.43,1.57,8.74,7.66,6.22,12.43,6.24l3.42,7.8c1.27-1.41,2-2.24,2.78-3.09,2.49-2.81,2.48-2.82,5.33-.47,2.37,2,2.37,2,4.39-.75,2.91-3.89,6.84-4.84,10.73-2.61,1.87,1.07,5.66,1.23,8,.47a5.48,5.48,0,0,1,2.31-.22,53.86,53.86,0,0,1,7,.91,11.76,11.76,0,0,0,9.08-1.15c4.51-2.62,10.05-.91,14.45-4.19.29-.22,1-.05,1.35.17,1.8,1,3.17,0,4.8-.81,3.65-1.76,7.19-5.07,11.58-2,.43.31,1.53-.17,2.13-.61,2.29-1.67,4.48-3.31,7.23-1.06.33.27,1.16-.31,1.76-.34,1.16,0,2.33,0,3.5,0,2,.13,4.81,1.32,6,.28,2.89-2.56,6.42-1.55,9.1-2.95,5.32-2.77,11-.83,16.2-2.82a4.17,4.17,0,0,1,3.21-.07c2.7,1.61,5.23.11,7.72-.34,3.17-.57,6.22-1.9,9.34-2.83,2.79-.83,5.5-1.46,8.51-.63a14.2,14.2,0,0,0,10.56-.89,6.86,6.86,0,0,1,2.19-.67c2.59-.34,5.18-.67,7.78-.89,1.66-.14,3.33-.1,5-.09.93,0,1.87.24,2.79.19,3.26-.2,6.6,0,9.75-.83s6-3.45,9.62-2.31c6.29-3,12.89-2,19.43-2a10.31,10.31,0,0,0,5.35-1.28,10,10,0,0,1,8.58-1.25c2.69.83,5.14.89,7.62-.86a4.13,4.13,0,0,1,3.14-.53c3.2.85,6.17-.3,9.23-.92,2.29-.46,4.67-1.33,6.89-1a15.11,15.11,0,0,0,8.58-1.2,9.15,9.15,0,0,1,2.73-.7c4.5-.49,9-.8,13.51-1.44,2.09-.29,4.29-2,6.14-1.6,2.75.65,4.86-.62,7.23-1.22,3-.77,6.14-2.24,9.11-2,5.44.42,10.51-1.31,15.73-2.09,4.95-.73,9.89-1.6,14.84-2.27,10.38-1.41,20.75-3,31.16-4,6.9-.68,13.42-4.55,20.57-3.05.64.13,1.42-.62,2.15-.91a3.77,3.77,0,0,1,1.73-.46c4,.61,7.69-2.29,11.7-1.08.25.08.59-.18.87-.32,3.21-1.66,6.41-3.32,9.63-5a5.18,5.18,0,0,1,1.77-.64,31.56,31.56,0,0,0,12.24-4,152.65,152.65,0,0,0,14.24-8.89c3.24-2.2,3.22-2.22,6.89-.67-.54-1-1-1.81-1.52-2.84,3.5-.55,5.7-4.39,9.48-3.9.49.06,1.45-1,1.58-1.63.38-2,1.58-1.51,2.8-1.83,3.4-.87,6.74-2.12,10.1-3.22,1.36-3.95,4.34-3.39,7.27-3.63a4.84,4.84,0,0,0,3.41-3c1.13-5,4.56-9.13,8.91-10.31,1.75-.47,3.34-1.63,5.06-2.32.9-.37,2.19-.93,2.82-.5,1.46,1,2.23,1.28,3.21-.74.36-.74,1.94-.76,3-1.09l6.4-2.09-.27-1.24L575.82,127c-.17-5.52-.24-5.73-4.75-4.52-2.74.74-6,.41-7.88,3.72-.39.68-1.9.56-3.05.84-.33-2.49-2-5.2,1-6.06,6.45-1.82,12.27-6.29,19.26-5.85.14,0,.31-.48.63-1a7.64,7.64,0,0,1-1.83-1.27c-2.52-3.28-5.26-2.77-8.34-1-1.16.67-2.86,1.23-4,.79a7,7,0,0,0-6.32.84c-2.94,2.09-5.12-.18-7.6-.31-.35,0-1-1-.92-1.45a3.22,3.22,0,0,1,.94-2.13c.59-.42,1.52-.21,2.29-.34,3.77-.66,3.89-.84,4.15-5.48.13-2.26.63-3.93,3.25-4,4,0,8.1-.43,12.14-.78A3,3,0,0,0,577.06,98c1.09-2.19,2.84-2.54,4.76-2.67,2.95-.22,5.92-.35,8.86-.65a10.37,10.37,0,0,0,2.57-1c-.06-.36-.13-.71-.2-1.06C584,91.55,575.15,94.58,565.76,94.28Zm-13.5,41.57c.74-1.26,2.31-1.91,3.47-2.91,1.43-1.22,4.33.45,4.65-2.92a11.59,11.59,0,0,1,2.32.89,1.52,1.52,0,0,1,.27,2.55c-2.86,2.78-5.48,6.1-10.06,5.92C552.66,138.24,551.83,136.59,552.26,135.85Z"/><circle cx="537.45" cy="90.86" r="90.86"/><circle cx="537.45" cy="90.86" r="73.45"/><path class="cls-2" d="M537.45,165.82a75,75,0,1,1,74.95-75A75,75,0,0,1,537.45,165.82Zm0-146.91a72,72,0,1,0,71.95,72A72,72,0,0,0,537.45,18.91Z"/><path class="cls-2" d="M130.41,82.51l2.38,122.88-30.2,4.22-1.84-95-16.63,2.32-.54-27.84Z"/><path class="cls-2" d="M223.48,127.48c10.16,5.67,15.25,14.41,15.49,26.68.45,23.25-17.21,41.66-43.64,45.35s-44.61-9.61-45.06-33c-.24-12.35,4.4-22.46,14.32-30.86-8-5.86-12.09-13.72-12.28-23.56-.41-21.17,15.92-38,40.62-41.48s41.49,8.68,41.9,30c.2,10-3.63,19-11.35,26.88Zm-13.86,29.75c-.17-8.61-6.19-13.79-15.26-12.52s-15,8.1-14.78,16.71,6.29,13.77,15.35,12.51S209.79,165.84,209.62,157.23Zm-28.83-48.09c.14,7.11,5.5,11.56,13.09,10.5s12.65-7,12.51-14.07S201,94,193.4,95.07,180.65,102,180.79,109.14Z"/><path class="cls-2" d="M333.86,54.11,334,58.9l-40.2,124-31.63,4.41,32.45-98.87-46.26,6.46-.56-28.79Z"/><path class="cls-2" d="M383.81,173.62c-24.81,3.47-40.17-8.79-40.88-30.37L373.12,139c.14,7.29,4.84,10,10.79,9.17,4.58-.64,8.88-3.81,8.78-9-.11-5.75-7-6.43-15.81-6.79-14.17-.54-33-2.6-33.44-26.8-.39-20,14.91-35.08,38.24-38.34s38.47,8.18,39.22,28.35l-29.36,4.1c-.13-6.37-4.09-8.79-9.78-8-5,.7-8.35,3.9-8.26,8.52.11,5.68,7.1,6,15.78,6.51,14.44.79,33.63,1.4,34.12,26.7.4,20.86-15.39,36.75-39.59,40.12Z"/><path class="cls-2" d="M0,299.14l11.32-1.64c0,2.88,2.19,4,4.7,3.61,2.29-.33,4.49-1.89,4.49-4.09,0-2.54-3.1-2.82-6.89-3.21C7.86,293.19.51,292.47.51,283.28c0-7.95,5.75-13.34,15.15-14.7s15,2.8,15,11l-11,1.59c0-2.55-1.88-3.48-4.15-3.15-2,.29-3.83,1.42-3.83,3.3,0,2.29,3,2.62,6.75,3,5.86.69,13.52,1.56,13.53,10.78,0,8.82-6.68,14.36-15.93,15.7C6.3,312.25,0,307.94,0,299.14Z"/><path class="cls-2" d="M63.69,293.32V303l-26,3.75,0-40.37,25.48-3.69v9.62l-14.56,2.1v5.95l13.08-1.89v9.12l-13.08,1.89v6.05Z"/><path class="cls-2" d="M84.93,287.54l-4,.58v12.35l-11,1.59,0-40.38,17.26-2.49c8.59-1.24,14.81,3.71,14.82,12.15a15.3,15.3,0,0,1-6.32,12.31l7.91,13.54L91.4,299Zm-4-8.79,5-.73c3.07-.44,4.83-2.57,4.83-5.09S89,268.81,86,269.26L81,270Z"/><path class="cls-2" d="M144,251l-15.23,42.58L118.52,295l-15.58-38.12,12.52-1.81L123.59,279l7.93-26.24Z"/><path class="cls-2" d="M148,250.41l11.11-1.61,0,40.37L148,290.78Z"/><path class="cls-2" d="M185.92,286.32c-12.12,1.75-21.18-6-21.18-18.11a24.69,24.69,0,0,1,21.17-24.31c10.43-1.51,18.52,4.31,20.14,14.31l-11.12,1.61a8,8,0,0,0-9-5.53c-5.63.82-9.77,6-9.77,12.26s4.14,10.16,9.78,9.35a11.08,11.08,0,0,0,9-8.71l11.22-1.62a24,24,0,0,1-20.25,20.75Z"/><path class="cls-2" d="M211.41,241.24l11.12-1.61V280l-11.12,1.61Z"/><path class="cls-2" d="M250.11,277c-12.8,1.85-21.94-5.7-21.94-18s9.13-22.53,21.93-24.38,21.87,5.68,21.88,18-9.1,22.52-21.87,24.37Zm0-10.35a12.24,12.24,0,0,0,10.44-12.37c0-6.32-4.39-10.22-10.45-9.34a12.34,12.34,0,0,0-10.51,12.37c0,6.29,4.46,10.22,10.52,9.34Z"/><path class="cls-2" d="M326.61,244.74c0,11.78-8.53,21.45-20.55,23.19l-16.12,2.33V229.89L306,227.56C318.1,225.81,326.6,232.94,326.61,244.74Zm-11.25,1.63c0-6-3.93-9.4-9.83-8.55l-4.58.66v20l4.59-.66A11.2,11.2,0,0,0,315.36,246.37Z"/><path class="cls-2" d="M358.28,250.73v9.65l-26,3.75,0-40.37,25.48-3.68v9.61l-14.56,2.11v5.94l13.08-1.89V245l-13.08,1.89v6Z"/><path class="cls-2" d="M375,244.93l11.32-1.64c0,2.89,2.19,4,4.69,3.61,2.3-.33,4.5-1.89,4.5-4.09,0-2.53-3.1-2.82-6.9-3.2-5.75-.62-13.1-1.35-13.1-10.54,0-7.95,5.75-13.34,15.14-14.7,9.55-1.38,15,2.8,15,11l-11,1.59c0-2.56-1.88-3.48-4.15-3.15-2,.28-3.84,1.41-3.84,3.29,0,2.29,3,2.62,6.76,3,5.86.69,13.52,1.57,13.53,10.79,0,8.81-6.68,14.36-15.93,15.69C381.29,258,375,253.73,375,244.93Z"/><path class="cls-2" d="M441.77,218,431,219.52v30.36l-11,1.59V221.11l-10.82,1.56v-10l32.65-4.72Z"/><path class="cls-2" d="M461.63,233.09l-4,.57V246l-11,1.58V207.23l17.26-2.5c8.58-1.24,14.81,3.71,14.81,12.15a15.31,15.31,0,0,1-6.31,12.32l7.91,13.54-12.25,1.77Zm-4-8.8,5-.72c3.07-.44,4.83-2.57,4.83-5.09s-1.77-4.12-4.83-3.68l-5,.73Z"/><path class="cls-2" d="M511.1,228.64v9.65l-26,3.75V201.67L510.61,198v9.61l-14.55,2.1v6l13.08-1.89v9.12l-13.08,1.89v6Z"/><path class="cls-2" d="M541.62,227.32l-14.12,2-2.2,6.88-11.76,1.7,15.63-42.64,10.72-1.55,16,38.07-12.08,1.74Zm-7.09-20.19-4.36,13.14,8.77-1.27Z"/><path class="cls-2" d="M599.11,225.57,596,202.77l-10.56,24.84-3.24.47L571.64,206.3,568.58,230l-11.12,1.61,6-41.25,11-1.58,9.38,20.61L593.24,186l11-1.58,6,39.51Z"/><path class="cls-2" d="M615.59,182.81l11.11-1.61,0,40.38-11.12,1.61Z"/><path class="cls-2" d="M669.94,175l0,40.38-9.08,1.31L645.06,197v21.92l-10.63,1.53V180.09l9.6-1.39,15.3,19V176.49Z"/><path class="cls-2" d="M717.81,186.83c0,13.21-8.5,23.83-21,25.63-12.2,1.77-21.22-5.82-21.22-18.11a24.39,24.39,0,0,1,21.11-24.29c10.43-1.51,19,3.88,20.66,13l-11.5,1.66c-1.44-3.19-5-4.86-9.06-4.28-6,.87-10,5.82-10,12.27s3.95,10.19,10,9.32c4.18-.61,7.77-3.18,9-6.48L696,197v-7Z"/><polygon class="cls-2" points="509.45 95.65 503.48 45.4 549.99 65.35 596.5 85.31 555.96 115.61 515.42 145.91 509.45 95.65"/></g></g></svg>