<svg xmlns="http://www.w3.org/2000/svg" viewBox="0 0 553.26 553.36"><defs><style>.cls-1{fill:#fff;}</style></defs><title>Recurso 7logo telegram</title><g id="Capa_2" data-name="Capa 2"><g id="Capa_1-2" data-name="Capa 1"><path class="cls-1" d="M276.43,553.36C123.61,553.27-.26,429.14,0,276.13.26,122.49,124.89-.58,277,0c76.14.29,141.77,27.48,195.5,81.34s80.68,119.51,80.77,195.59C553.45,429.73,429.28,553.45,276.43,553.36ZM408.76,177a21.53,21.53,0,0,0,0-2.41c-.49-4.18-1.71-8-5.36-10.6a14.71,14.71,0,0,0-7.8-2.41,32.59,32.59,0,0,0-14.11,2.46c-7.25,2.87-14.39,6-21.62,8.91q-18.92,7.65-37.69,15.65c-32.25,13.74-64.73,26.93-97.17,40.24q-13.74,5.64-27.46,11.31c-12.63,5.22-25.24,10.5-37.89,15.69-13.13,5.39-26.32,10.63-39.43,16.08-4.75,2-9.63,3.7-14.14,6.23-2.52,1.43-5.07,2.88-7,5.14-2.11,2.53-3.87,5.3-2.88,8.77a10.36,10.36,0,0,0,6.78,7.41c17,5.79,34.07,11.39,51.28,16.53a61.15,61.15,0,0,0,19.84,2.76,52.47,52.47,0,0,0,8.21-.79c4.68-.93,8.67-3.43,12.59-6.07q53.48-36.09,107-72.11c3.78-2.54,7.58-5.07,11.51-7.38a70.91,70.91,0,0,1,9.8-5,19.79,19.79,0,0,1,4.63-1.34c3.43-.47,4.87,1.11,4.18,4.54a15.83,15.83,0,0,1-1.53,4,40.87,40.87,0,0,1-7.75,10.22c-27,26.77-54.61,52.88-82.57,78.63a34.57,34.57,0,0,0-6.58,8.05,11.48,11.48,0,0,0-.95,8.66,17.1,17.1,0,0,0,6,9.19c2.23,1.85,4.61,3.51,6.93,5.26,18.15,13.67,37.1,26.19,56,38.71,6.19,4.09,12.46,8.08,18.56,12.29a105.56,105.56,0,0,0,19.19,10.66,49.36,49.36,0,0,0,13.38,3.75c6.73.79,12.37-1.16,16.56-6.66a25.68,25.68,0,0,0,4.54-9.64c.55-2.33,1-4.69,1.4-7.06q3.92-24.35,7.78-48.71t7.74-48.73q4.2-26.61,8.34-53.24,4-26.1,7.87-52.23A147.68,147.68,0,0,0,408.76,177Z"/></g></g></svg>