<svg xmlns="http://www.w3.org/2000/svg" viewBox="0 0 553.8 553.36"><defs><style>.cls-1{fill:#fff;}</style></defs><title>Recurso 5logo face</title><g id="Capa_2" data-name="Capa 2"><g id="Capa_1-2" data-name="Capa 1"><path class="cls-1" d="M271,553.33q-112.27,0-224.54,0A46.27,46.27,0,0,1,0,506.56Q0,276.7,0,46.86C0,20.44,20.41,0,46.77,0H507c26.37,0,46.77,20.43,46.77,46.84q0,229.61,0,459.21c0,26.74-20.31,47.25-46.93,47.28q-69.74.06-139.48,0c-.08-.8-.21-1.6-.21-2.41q0-113.46-.09-226.94c0-3.46,1-4.29,4.35-4.27,23.49.15,47,0,70.47.18,4.12,0,5.08-1.17,5.06-5.16q-.25-42.75,0-85.52c0-4.13-.79-5.51-5.25-5.46-22.2.25-44.39.11-66.59.12-2.25,0-4.5.52-4.42-3.2.26-12.46-.11-24.95.43-37.39.56-13.11,8.21-19.94,21.33-20,16.37,0,32.73-.1,49.09.07,3.26,0,4.12-1,4.11-4.12q-.15-37.17,0-74.35c0-3.3-1.17-4-4.24-4-8.25.16-16.52-.14-24.78,0-20.4.28-40.84-1.29-61.19.81C308.25,86.56,277,117.93,272,165c-1.92,18.09-.59,36.25-.84,54.37-.05,3.54-.77,4.67-4.5,4.6-12.8-.25-25.6.08-38.4-.2-4-.08-4.77,1.29-4.75,5q.21,43.25,0,86.5c0,3.58.84,4.73,4.56,4.66,12.47-.24,25,.14,37.42-.21,4.64-.13,5.86,1,5.85,5.77q-.25,111.52-.13,223.05C271.21,550.1,271.07,551.71,271,553.33Z"/></g></g></svg>